<svg height="512" viewBox="0 0 256 256" width="512" xmlns="http://www.w3.org/2000/svg"><rect fill="#8852a8" height="248" rx="10" width="124" x="4" y="4"/><path d="m14 252h10a10 10 0 0 1 -10-10v-228a10 10 0 0 1 10-10h-10a10 10 0 0 0 -10 10v228a10 10 0 0 0 10 10z" fill="#a670c6"/><rect fill="#f4efed" height="248" rx="10" width="124" x="128" y="4"/><path d="m242 4h-10a10 10 0 0 1 10 10v228a10 10 0 0 1 -10 10h10a10 10 0 0 0 10-10v-228a10 10 0 0 0 -10-10z" fill="#d6d1cf"/><path d="m151.535 37.577h76.929v32.503h-76.929z" fill="#fcc24c"/><path d="m118 254h-104a12.013 12.013 0 0 1 -12-12v-228a12.013 12.013 0 0 1 12-12h104a12.013 12.013 0 0 1 12 12v228a12.013 12.013 0 0 1 -12 12zm-104-248a8.009 8.009 0 0 0 -8 8v228a8.009 8.009 0 0 0 8 8h104a8.009 8.009 0 0 0 8-8v-228a8.009 8.009 0 0 0 -8-8z" fill="#690589"/><path d="m242 254h-104a12.013 12.013 0 0 1 -12-12v-228a12.013 12.013 0 0 1 12-12h104a12.013 12.013 0 0 1 12 12v228a12.013 12.013 0 0 1 -12 12zm-104-248a8.009 8.009 0 0 0 -8 8v228a8.009 8.009 0 0 0 8 8h104a8.009 8.009 0 0 0 8-8v-228a8.009 8.009 0 0 0 -8-8z" fill="#690589"/><path d="m75.735 185.473-5.736-4.302v-62.608h-9.012v62.608l-5.736 4.302-10.243 7.681h20.485 20.484z" fill="#f4efed"/><path d="m85.978 195.153h-40.969a2 2 0 0 1 -1.2-3.6l15.178-11.382v-61.608a2 2 0 0 1 2-2h9.013a2 2 0 0 1 2 2v61.608l15.179 11.382a2 2 0 0 1 -1.2 3.6zm-34.968-4h28.967l-11.177-8.382a2 2 0 0 1 -.8-1.6v-60.608h-5.013v60.608a2 2 0 0 1 -.8 1.6z" fill="#690589"/><path d="m65.493 135.2a27.625 27.625 0 0 1 -27.626-27.626v-44.728h55.252v44.723a27.626 27.626 0 0 1 -27.626 27.631z" fill="#f4efed"/><path d="m37.867 91.181v16.388a27.625 27.625 0 0 0 27.626 27.631 27.626 27.626 0 0 0 27.626-27.626v-16.393z" fill="#fcc24c"/><path d="m85.866 62.846v44.723a27.625 27.625 0 0 1 -24 27.382 27.825 27.825 0 0 0 3.627.244 27.626 27.626 0 0 0 27.626-27.626v-44.723z" fill="#d6d1cf"/><path d="m45.12 62.846v44.723a27.625 27.625 0 0 0 24 27.382 27.8 27.8 0 0 1 -3.626.244 27.625 27.625 0 0 1 -27.626-27.626v-44.723z" fill="#fff"/><path d="m85.866 91.181v16.388a27.625 27.625 0 0 1 -24 27.382 27.825 27.825 0 0 0 3.627.244 27.626 27.626 0 0 0 27.626-27.626v-16.388z" fill="#dea42e"/><path d="m45.12 91.181v16.388a27.625 27.625 0 0 0 24 27.382 27.8 27.8 0 0 1 -3.626.244 27.625 27.625 0 0 1 -27.626-27.626v-16.388z" fill="#fce06a"/><path d="m65.493 137.2a29.66 29.66 0 0 1 -29.627-29.626v-44.727a2 2 0 0 1 2-2h55.253a2 2 0 0 1 2 2v44.722a29.659 29.659 0 0 1 -29.626 29.631zm-25.627-72.353v42.722a25.627 25.627 0 0 0 51.253 0v-42.722z" fill="#690589"/><path d="m92.083 93.182h-53.183a2 2 0 0 1 0-4h53.183a2 2 0 0 1 0 4z" fill="#690589"/><path d="m135.26 35.81h-14.52a5.467 5.467 0 0 1 -5.467-5.467 5.467 5.467 0 0 1 5.467-5.466h14.52a5.467 5.467 0 0 1 5.467 5.466 5.467 5.467 0 0 1 -5.467 5.467z" fill="#fcc24c"/><path d="m135.26 231.123h-14.52a5.467 5.467 0 0 1 -5.467-5.466 5.467 5.467 0 0 1 5.467-5.467h14.52a5.467 5.467 0 0 1 5.467 5.467 5.467 5.467 0 0 1 -5.467 5.466z" fill="#fcc24c"/><g fill="#690589"><path d="m135.261 37.81h-14.522a7.467 7.467 0 0 1 0-14.933h14.522a7.467 7.467 0 0 1 0 14.933zm-14.522-10.933a3.467 3.467 0 0 0 0 6.933h14.522a3.467 3.467 0 0 0 0-6.933z"/><path d="m135.261 233.123h-14.522a7.467 7.467 0 0 1 0-14.933h14.522a7.467 7.467 0 0 1 0 14.933zm-14.522-10.933a3.467 3.467 0 0 0 0 6.933h14.522a3.467 3.467 0 0 0 0-6.933z"/><path d="m228.465 72.08h-76.93a2 2 0 0 1 -2-2v-32.5a2 2 0 0 1 2-2h76.93a2 2 0 0 1 2 2v32.5a2 2 0 0 1 -2 2zm-74.93-4h72.93v-28.5h-72.93z"/><path d="m199.775 92.853h-48.24a2 2 0 0 1 0-4h48.24a2 2 0 0 1 0 4z"/><path d="m228.465 92.853h-11.748a2 2 0 0 1 0-4h11.748a2 2 0 0 1 0 4z"/><path d="m199.775 118.367h-48.24a2 2 0 0 1 0-4h48.24a2 2 0 0 1 0 4z"/><path d="m228.465 118.367h-11.748a2 2 0 0 1 0-4h11.748a2 2 0 0 1 0 4z"/><path d="m199.775 143.881h-48.24a2 2 0 0 1 0-4h48.24a2 2 0 0 1 0 4z"/><path d="m228.465 143.881h-11.748a2 2 0 0 1 0-4h11.748a2 2 0 0 1 0 4z"/><path d="m199.775 169.4h-48.24a2 2 0 0 1 0-4h48.24a2 2 0 0 1 0 4z"/><path d="m228.465 169.4h-11.748a2 2 0 0 1 0-4h11.748a2 2 0 0 1 0 4z"/><path d="m199.775 194.909h-48.24a2 2 0 1 1 0-4h48.24a2 2 0 0 1 0 4z"/><path d="m228.465 194.909h-11.748a2 2 0 1 1 0-4h11.748a2 2 0 1 1 0 4z"/><path d="m199.775 220.423h-48.24a2 2 0 1 1 0-4h48.24a2 2 0 0 1 0 4z"/><path d="m228.465 220.423h-11.748a2 2 0 1 1 0-4h11.748a2 2 0 1 1 0 4z"/><path d="m14 55.245a2 2 0 0 1 -2-2v-12a2 2 0 0 1 4 0v12a2 2 0 0 1 -2 2z"/></g></svg>